<svg width="150" height="38" viewBox="0 0 150 38" fill="none" xmlns="http://www.w3.org/2000/svg">
<path d="M27.0361 0C32.6998 0 37.2909 4.59124 37.291 10.2549V27.0361C37.291 32.6999 32.6999 37.291 27.0361 37.291H10.2549C4.59124 37.2909 0 32.6998 0 27.0361V10.2549C0.000150686 4.59133 4.59133 0.000150682 10.2549 0H27.0361ZM19.6719 8.41504C19.5788 8.38273 19.4773 8.38207 19.3838 8.41309C19.2902 8.44418 19.2101 8.5057 19.1562 8.58691L12.1846 20.5674C12.1438 20.6324 12.1217 20.7078 12.1201 20.7842C12.1186 20.8604 12.1379 20.9354 12.1758 21.002C12.2138 21.0686 12.2688 21.1245 12.3359 21.1631C12.403 21.2017 12.4798 21.2217 12.5576 21.2217H18.2041L17.4424 28.4365C17.435 28.5324 17.4605 28.6279 17.5146 28.708C17.569 28.7882 17.6499 28.8485 17.7432 28.8789C17.8362 28.9091 17.9369 28.9083 18.0293 28.876C18.1218 28.8436 18.2003 28.7815 18.2529 28.7002L25.1094 16.7207C25.1491 16.6556 25.171 16.5808 25.1719 16.5049C25.1727 16.4291 25.1534 16.3541 25.1152 16.2881C25.0771 16.222 25.021 16.1671 24.9541 16.1289C24.8874 16.0908 24.8116 16.0704 24.7344 16.0703H19.002L19.9629 8.86719C19.9731 8.77086 19.9501 8.67372 19.8975 8.5918C19.8447 8.50981 19.765 8.44743 19.6719 8.41504Z" fill="white"/>
<path d="M46.491 28.6455V11.8455H51.675C56.907 11.8455 59.523 16.0455 59.523 20.2455C59.523 24.4455 56.907 28.6455 51.675 28.6455H46.491ZM49.347 25.9335H51.699C54.963 25.9335 56.571 23.0775 56.571 20.2455C56.571 17.3895 54.963 14.5575 51.699 14.5575H49.347V25.9335ZM58.8116 28.6455L63.7556 11.8455H67.0916L72.4436 28.6455H69.4676L68.8436 26.4615H62.3156L61.7396 28.6455H58.8116ZM63.0356 23.7495H68.0516L65.4356 14.7015L63.0356 23.7495ZM81.1399 28.8855C77.0359 28.8855 73.4119 25.9815 72.8359 21.4695H71.3479V18.7575H72.8839C73.5559 14.3895 77.2999 11.6055 81.1879 11.6055C84.2119 11.6055 86.6599 12.7815 88.3879 15.1095L86.1079 16.9575C84.9079 15.3735 83.3479 14.4135 81.1639 14.4135C78.7879 14.4135 76.4839 16.0695 75.8839 18.7575H88.9639V21.3495C88.9639 25.0455 86.0839 28.8855 81.1399 28.8855ZM75.8119 21.4695C76.3159 24.3255 78.5719 26.0775 81.2839 26.0775C83.7079 26.0775 86.0599 24.5895 86.0599 21.4695H75.8119ZM98.1861 28.8855C93.7221 28.8855 89.6901 25.4535 89.6901 20.2215C89.6901 15.0375 93.7701 11.6055 98.2341 11.6055C100.994 11.6055 103.466 12.7815 105.026 15.1095L102.746 16.9575C101.714 15.3735 100.154 14.4135 98.2341 14.4135C95.3061 14.4135 92.6421 16.6695 92.6421 20.2215C92.6421 23.8215 95.2581 26.0775 98.2341 26.0775C100.082 26.0775 101.714 25.3095 102.746 23.6055L104.93 25.5495C103.298 27.8055 100.898 28.8855 98.1861 28.8855ZM113.82 28.8855C109.308 28.8855 105.276 25.4775 105.276 20.2455C105.276 15.0615 109.308 11.6055 113.82 11.6055C118.308 11.6055 122.364 15.0615 122.364 20.2455C122.364 25.4775 118.308 28.8855 113.82 28.8855ZM108.228 20.2455C108.228 23.8455 110.844 26.0775 113.82 26.0775C116.772 26.0775 119.412 23.8455 119.412 20.2455C119.412 16.6935 116.772 14.4135 113.82 14.4135C110.844 14.4135 108.228 16.6935 108.228 20.2455ZM123.329 28.6455L125.129 14.5575H123.329V11.8455H128.681C134.009 11.8455 136.529 15.8775 136.529 20.0055C136.529 24.2775 133.817 28.6455 128.681 28.6455H123.329ZM126.545 25.9335H128.705C131.849 25.9335 133.577 22.9095 133.577 19.9815C133.577 17.2215 132.041 14.5575 128.705 14.5575H127.985L126.545 25.9335ZM138.085 28.6455V11.8455H148.717V14.5575H140.941V18.7575H147.109V21.4695H140.941V25.9335H148.717V28.6455H138.085Z" fill="white"/>
</svg>
