<svg width="16" height="8" viewBox="0 0 16 8" fill="none" xmlns="http://www.w3.org/2000/svg">
<path d="M12.0001 4.89251e-10C13.0436 -1.63101e-05 14.0459 0.40779 14.7929 1.1364C15.54 1.86502 15.9728 2.85674 15.9989 3.89997C16.025 4.9432 15.6423 5.95532 14.9326 6.72037C14.2229 7.48543 13.2423 7.94284 12.2001 7.995L12.0001 8H10.0001C9.81004 7.99994 9.62712 7.92776 9.48827 7.79803C9.34942 7.6683 9.26499 7.4907 9.25204 7.30112C9.23909 7.11154 9.29858 6.92411 9.4185 6.7767C9.53841 6.62929 9.70981 6.5329 9.89806 6.507L10.0001 6.5H12.0001C12.65 6.50158 13.2749 6.25003 13.7425 5.79866C14.21 5.34729 14.4835 4.73158 14.5048 4.08205C14.5261 3.43251 14.2937 2.80019 13.8567 2.31913C13.4198 1.83806 12.8127 1.54605 12.1641 1.505L12.0001 1.5H10.0001C9.81004 1.49994 9.62712 1.42776 9.48827 1.29803C9.34942 1.1683 9.26499 0.990701 9.25204 0.80112C9.23909 0.611538 9.29858 0.424108 9.4185 0.276701C9.53841 0.129294 9.70981 0.0329014 9.89806 0.00699997L10.0001 4.89251e-10L12.0001 4.89251e-10ZM6.00006 4.89251e-10C6.19009 5.82431e-05 6.373 0.0722443 6.51186 0.201972C6.65071 0.331701 6.73514 0.509299 6.74809 0.69888C6.76104 0.888462 6.70155 1.07589 6.58163 1.2233C6.46171 1.37071 6.29031 1.4671 6.10206 1.493L6.00006 1.5L4.00006 1.5C3.35018 1.49842 2.72522 1.74997 2.25765 2.20134C1.79008 2.65271 1.51665 3.26842 1.49533 3.91795C1.474 4.56749 1.70645 5.19981 2.14341 5.68087C2.58036 6.16194 3.18747 6.45395 3.83606 6.495L4.00006 6.5H6.00006C6.19009 6.50006 6.373 6.57224 6.51186 6.70197C6.65071 6.8317 6.73514 7.0093 6.74809 7.19888C6.76104 7.38846 6.70155 7.57589 6.58163 7.7233C6.46171 7.87071 6.29031 7.9671 6.10206 7.993L6.00006 8H4.00006C2.95651 8.00002 1.95427 7.59221 1.20719 6.8636C0.460107 6.13498 0.0273494 5.14326 0.00125238 4.10003C-0.0248446 3.0568 0.357786 2.04468 1.0675 1.27963C1.77721 0.51457 2.75781 0.0571615 3.80006 0.00500011L4.00006 4.89251e-10L6.00006 4.89251e-10ZM4.25006 3.25H11.7501C11.9401 3.25006 12.123 3.32224 12.2619 3.45197C12.4007 3.5817 12.4851 3.7593 12.4981 3.94888C12.511 4.13846 12.4515 4.32589 12.3316 4.4733C12.2117 4.62071 12.0403 4.7171 11.8521 4.743L11.7501 4.75L4.25006 4.75C4.06004 4.74994 3.87712 4.67776 3.73827 4.54803C3.59942 4.4183 3.51499 4.2407 3.50204 4.05112C3.48909 3.86154 3.54858 3.67411 3.6685 3.5267C3.78841 3.37929 3.95981 3.2829 4.14806 3.257L4.25006 3.25Z" fill="#633BC0"/>
<path d="M12.0001 4.89251e-10C13.0436 -1.63101e-05 14.0459 0.40779 14.7929 1.1364C15.54 1.86502 15.9728 2.85674 15.9989 3.89997C16.025 4.9432 15.6423 5.95532 14.9326 6.72037C14.2229 7.48543 13.2423 7.94284 12.2001 7.995L12.0001 8H10.0001C9.81004 7.99994 9.62712 7.92776 9.48827 7.79803C9.34942 7.6683 9.26499 7.4907 9.25204 7.30112C9.23909 7.11154 9.29858 6.92411 9.4185 6.7767C9.53841 6.62929 9.70981 6.5329 9.89806 6.507L10.0001 6.5H12.0001C12.65 6.50158 13.2749 6.25003 13.7425 5.79866C14.21 5.34729 14.4835 4.73158 14.5048 4.08205C14.5261 3.43251 14.2937 2.80019 13.8567 2.31913C13.4198 1.83806 12.8127 1.54605 12.1641 1.505L12.0001 1.5H10.0001C9.81004 1.49994 9.62712 1.42776 9.48827 1.29803C9.34942 1.1683 9.26499 0.990701 9.25204 0.80112C9.23909 0.611538 9.29858 0.424108 9.4185 0.276701C9.53841 0.129294 9.70981 0.0329014 9.89806 0.00699997L10.0001 4.89251e-10L12.0001 4.89251e-10ZM6.00006 4.89251e-10C6.19009 5.82431e-05 6.373 0.0722443 6.51186 0.201972C6.65071 0.331701 6.73514 0.509299 6.74809 0.69888C6.76104 0.888462 6.70155 1.07589 6.58163 1.2233C6.46171 1.37071 6.29031 1.4671 6.10206 1.493L6.00006 1.5L4.00006 1.5C3.35018 1.49842 2.72522 1.74997 2.25765 2.20134C1.79008 2.65271 1.51665 3.26842 1.49533 3.91795C1.474 4.56749 1.70645 5.19981 2.14341 5.68087C2.58036 6.16194 3.18747 6.45395 3.83606 6.495L4.00006 6.5H6.00006C6.19009 6.50006 6.373 6.57224 6.51186 6.70197C6.65071 6.8317 6.73514 7.0093 6.74809 7.19888C6.76104 7.38846 6.70155 7.57589 6.58163 7.7233C6.46171 7.87071 6.29031 7.9671 6.10206 7.993L6.00006 8H4.00006C2.95651 8.00002 1.95427 7.59221 1.20719 6.8636C0.460107 6.13498 0.0273494 5.14326 0.00125238 4.10003C-0.0248446 3.0568 0.357786 2.04468 1.0675 1.27963C1.77721 0.51457 2.75781 0.0571615 3.80006 0.00500011L4.00006 4.89251e-10L6.00006 4.89251e-10ZM4.25006 3.25H11.7501C11.9401 3.25006 12.123 3.32224 12.2619 3.45197C12.4007 3.5817 12.4851 3.7593 12.4981 3.94888C12.511 4.13846 12.4515 4.32589 12.3316 4.4733C12.2117 4.62071 12.0403 4.7171 11.8521 4.743L11.7501 4.75L4.25006 4.75C4.06004 4.74994 3.87712 4.67776 3.73827 4.54803C3.59942 4.4183 3.51499 4.2407 3.50204 4.05112C3.48909 3.86154 3.54858 3.67411 3.6685 3.5267C3.78841 3.37929 3.95981 3.2829 4.14806 3.257L4.25006 3.25Z" fill="black" fill-opacity="0.2"/>
</svg>
