<svg width="22" height="22" viewBox="0 0 22 22" fill="none" xmlns="http://www.w3.org/2000/svg">
<path d="M1.37604 16.9441C1.42198 16.5306 1.44496 16.3238 1.50751 16.1306C1.56301 15.9591 1.64143 15.796 1.74064 15.6455C1.85246 15.476 1.99955 15.3289 2.29373 15.0347L15.5 1.82843C16.6046 0.723857 18.3955 0.723859 19.5 1.82843C20.6046 2.933 20.6046 4.72386 19.5 5.82843L6.29373 19.0347C5.99955 19.3289 5.85245 19.476 5.68289 19.5878C5.53245 19.687 5.36929 19.7654 5.19785 19.8209C5.0046 19.8835 4.79786 19.9064 4.38437 19.9524L1 20.3284L1.37604 16.9441Z" stroke="#8C8E90" stroke-width="2" stroke-linecap="round" stroke-linejoin="round"/>
</svg>
