<svg width="20" height="20" viewBox="0 0 20 20" fill="none" xmlns="http://www.w3.org/2000/svg">
<path d="M9.58301 2.5C13.4949 2.5 16.6668 5.67114 16.667 9.58301C16.667 11.2406 16.0956 12.7638 15.1416 13.9707L15.4717 14.293L18.0889 16.9111C18.4143 17.2366 18.4143 17.7634 18.0889 18.0889C17.7885 18.3893 17.3162 18.4124 16.9893 18.1582L16.9111 18.0889L14.2998 15.4785L13.9619 15.1484C12.7564 16.0983 11.2366 16.667 9.58301 16.667C5.67114 16.6668 2.5 13.4949 2.5 9.58301C2.50018 5.67125 5.67125 2.50018 9.58301 2.5ZM9.58301 4.16699C6.59172 4.16717 4.16717 6.59172 4.16699 9.58301C4.16699 12.5744 6.59162 14.9998 9.58301 15C12.5746 15 15 12.5746 15 9.58301C14.9998 6.59162 12.5744 4.16699 9.58301 4.16699Z" fill="#0A1629"/>
</svg>
