<svg width="19" height="19" viewBox="0 0 19 19" fill="none" xmlns="http://www.w3.org/2000/svg">
<path d="M2.33333 18.1709C1.69167 18.1709 1.14256 17.9426 0.686 17.486C0.229444 17.0295 0.000777778 16.48 0 15.8375V13.5042C0 13.1736 0.112 12.8967 0.336 12.6735C0.56 12.4503 0.836889 12.3383 1.16667 12.3375C1.49644 12.3367 1.77372 12.4487 1.9985 12.6735C2.22328 12.8983 2.33489 13.1752 2.33333 13.5042V15.8375H16.3333V13.5042C16.3333 13.1736 16.4453 12.8967 16.6693 12.6735C16.8933 12.4503 17.1702 12.3383 17.5 12.3375C17.8298 12.3367 18.1071 12.4487 18.3318 12.6735C18.5566 12.8983 18.6682 13.1752 18.6667 13.5042V15.8375C18.6667 16.4792 18.4384 17.0287 17.9818 17.486C17.5253 17.9433 16.9758 18.1716 16.3333 18.1709H2.33333ZM8.16667 3.99585L5.97917 6.18335C5.74583 6.41668 5.46895 6.52868 5.1485 6.51935C4.82806 6.51002 4.55078 6.38829 4.31667 6.15418C4.10278 5.92085 3.99078 5.64863 3.98067 5.33752C3.97056 5.02641 4.08256 4.75418 4.31667 4.52085L8.51667 0.320851C8.63333 0.204184 8.75972 0.12174 8.89583 0.0735176C9.03195 0.0252954 9.17778 0.000795727 9.33333 1.79489e-05C9.48889 -0.000759829 9.63472 0.0237399 9.77083 0.0735176C9.90695 0.123295 10.0333 0.20574 10.15 0.320851L14.35 4.52085C14.5833 4.75418 14.6953 5.02641 14.686 5.33752C14.6767 5.64863 14.5647 5.92085 14.35 6.15418C14.1167 6.38752 13.8398 6.50924 13.5193 6.51935C13.1989 6.52946 12.9216 6.41746 12.6875 6.18335L10.5 3.99585V12.3375C10.5 12.6681 10.388 12.9454 10.164 13.1694C9.94 13.3934 9.66311 13.505 9.33333 13.5042C9.00356 13.5034 8.72667 13.3914 8.50267 13.1682C8.27867 12.945 8.16667 12.6681 8.16667 12.3375V3.99585Z" fill="#0C8CE9"/>
</svg>
