<svg width="35" height="21" viewBox="0 0 35 21" fill="none" xmlns="http://www.w3.org/2000/svg">
<path d="M33.34 20.6341H29.5367C28.0983 20.6341 27.665 19.4691 25.0867 16.8891C22.8333 14.7174 21.8817 14.4474 21.3117 14.4474C20.5233 14.4474 20.3083 14.6641 20.3083 15.7491V19.1691C20.3083 20.0941 20.0083 20.6358 17.5917 20.6358C15.2472 20.4783 12.9736 19.766 10.9583 18.5577C8.94296 17.3494 7.24354 15.6795 6 13.6858C3.04836 10.0101 0.994014 5.69717 0 1.0891C0 0.519097 0.216667 0.00243047 1.30333 0.00243047H5.10333C6.08 0.00243047 6.43167 0.437431 6.815 1.44243C8.66 6.87243 11.8083 11.5958 13.0867 11.5958C13.5767 11.5958 13.79 11.3791 13.79 10.1574V4.5641C13.6283 2.01243 12.2733 1.79743 12.2733 0.874098C12.2905 0.630499 12.4019 0.403178 12.584 0.240419C12.766 0.0776601 13.0043 -0.0077142 13.2483 0.00243047H19.2217C20.0383 0.00243047 20.3083 0.409097 20.3083 1.38576V8.93577C20.3083 9.75076 20.6583 10.0208 20.905 10.0208C21.395 10.0208 21.7717 9.75076 22.67 8.8541C24.5948 6.50519 26.1679 3.88895 27.34 1.08743C27.4594 0.750704 27.6859 0.462417 27.9849 0.266745C28.2838 0.0710739 28.6386 -0.0211882 28.995 0.00409702H32.7967C33.9367 0.00409702 34.1783 0.574098 33.9367 1.38743C32.5536 4.48459 30.8427 7.4247 28.8333 10.1574C28.4233 10.7824 28.26 11.1074 28.8333 11.8408C29.21 12.4108 30.5433 13.5241 31.4383 14.5824C32.7417 15.8824 33.8233 17.3858 34.6417 19.0324C34.9683 20.0924 34.425 20.6341 33.34 20.6341Z" fill="white"/>
</svg>
