<svg width="34" height="27" viewBox="0 0 34 27" fill="none" xmlns="http://www.w3.org/2000/svg">
<path fill-rule="evenodd" clip-rule="evenodd" d="M16.6667 0C18.0917 0 19.5533 0.0366668 20.97 0.0966668L22.6433 0.176667L24.245 0.271667L25.745 0.373333L27.115 0.48C28.602 0.593152 30.0013 1.22739 31.0666 2.271C32.1319 3.31462 32.7947 4.70066 32.9383 6.185L33.005 6.89333L33.13 8.41C33.2467 9.98167 33.3333 11.695 33.3333 13.3333C33.3333 14.9717 33.2467 16.685 33.13 18.2567L33.005 19.7733L32.9383 20.4817C32.7946 21.9663 32.1316 23.3525 31.066 24.3962C30.0004 25.4398 28.6006 26.0739 27.1133 26.1867L25.7467 26.2917L24.2467 26.395L22.6433 26.49L20.97 26.57C19.5364 26.6321 18.1016 26.6643 16.6667 26.6667C15.2317 26.6643 13.797 26.6321 12.3633 26.57L10.69 26.49L9.08833 26.395L7.58833 26.2917L6.21833 26.1867C4.73136 26.0735 3.332 25.4393 2.26674 24.3957C1.20148 23.3521 0.538651 21.966 0.395 20.4817L0.328333 19.7733L0.203333 18.2567C0.0763879 16.6185 0.00856607 14.9764 0 13.3333C0 11.695 0.0866666 9.98167 0.203333 8.41L0.328333 6.89333L0.395 6.185C0.538595 4.70092 1.20119 3.31509 2.2661 2.27151C3.33102 1.22793 4.72999 0.593527 6.21667 0.48L7.585 0.373333L9.085 0.271667L10.6883 0.176667L12.3617 0.0966668C13.7958 0.0345453 15.2312 0.00231597 16.6667 0ZM13.3333 9.29167V17.375C13.3333 18.145 14.1667 18.625 14.8333 18.2417L21.8333 14.2C21.9857 14.1123 22.1122 13.986 22.2001 13.8339C22.2881 13.6817 22.3344 13.5091 22.3344 13.3333C22.3344 13.1576 22.2881 12.9849 22.2001 12.8328C22.1122 12.6806 21.9857 12.5543 21.8333 12.4667L14.8333 8.42667C14.6813 8.33887 14.5088 8.29266 14.3332 8.29269C14.1576 8.29272 13.9851 8.33898 13.8331 8.42683C13.681 8.51467 13.5548 8.641 13.4671 8.79311C13.3793 8.94522 13.3332 9.11774 13.3333 9.29333V9.29167Z" fill="white"/>
</svg>
